<svg xmlns="http://www.w3.org/2000/svg" viewBox="0 0 74 74"><defs><style>.cls-1{fill:#400080;}.cls-2{fill:#fff;}</style></defs><g id="Layer_2" data-name="Layer 2"><g id="Layer_1-2" data-name="Layer 1"><circle class="cls-1" cx="37" cy="37" r="37"/><path class="cls-2" d="M60,47.69A14.62,14.62,0,0,1,58.2,55a16.64,16.64,0,0,1-5,5.54A24.14,24.14,0,0,1,45.57,64a35.58,35.58,0,0,1-9.51,1.22,25.26,25.26,0,0,1-6.15-.76A30.07,30.07,0,0,1,24,62.32a29.38,29.38,0,0,1-5.44-3.49A28.38,28.38,0,0,1,14,54.17l5.62-5.25c.72.86,1.58,1.78,2.59,2.77a20.36,20.36,0,0,0,3.56,2.73,21.39,21.39,0,0,0,4.61,2.09,18.54,18.54,0,0,0,5.72.83,30,30,0,0,0,5.84-.57A18.86,18.86,0,0,0,47,55a10.58,10.58,0,0,0,3.6-3A7.07,7.07,0,0,0,52,47.66a7.07,7.07,0,0,0-1.41-4.73,8.1,8.1,0,0,0-3.63-2.41,18.89,18.89,0,0,0-5.12-.89q-2.88-.15-5.76-.15-9.72,0-14.76-3.45t-5-10.44a14.41,14.41,0,0,1,1.48-6.3,17.13,17.13,0,0,1,4.1-5.4,20.46,20.46,0,0,1,6.27-3.75,22,22,0,0,1,8-1.4,34.25,34.25,0,0,1,11.45,1.87,27.6,27.6,0,0,1,10.15,6.63L52.77,23a48.16,48.16,0,0,0-4.07-3,22.68,22.68,0,0,0-3.85-2A19.66,19.66,0,0,0,40.78,17a32.34,32.34,0,0,0-4.72-.32,12.8,12.8,0,0,0-4.32.72,12,12,0,0,0-3.52,1.94,9.34,9.34,0,0,0-2.38,2.85A7,7,0,0,0,25,25.52a5.6,5.6,0,0,0,.5,2.34,4.92,4.92,0,0,0,1.8,2,10.58,10.58,0,0,0,3.49,1.36,25.75,25.75,0,0,0,5.65.51,51.87,51.87,0,0,1,11.63,1.08,18.91,18.91,0,0,1,7.24,3.13A10.85,10.85,0,0,1,59,41,20.49,20.49,0,0,1,60,47.69Z"/></g></g></svg>